<svg width="372" height="285" viewBox="0 0 372 285" fill="none" xmlns="http://www.w3.org/2000/svg">
<rect x="1.5" y="1.5" width="369" height="282" rx="21.5" fill="white" stroke="black" stroke-width="3"/>
<rect x="20" y="17" width="332" height="40" rx="5" fill="#D9D9D9"/>
<path d="M333 27C337.968 27 342 31.032 342 36C342 40.968 337.968 45 333 45C328.032 45 324 40.968 324 36C324 31.032 328.032 27 333 27ZM333 43C336.868 43 340 39.8675 340 36C340 32.1325 336.868 29 333 29C329.132 29 326 32.1325 326 36C326 39.8675 329.132 43 333 43ZM341.485 43.0711L344.314 45.8995L342.899 47.3137L340.071 44.4853L341.485 43.0711Z" fill="black"/>
<rect x="28" y="24" width="290" height="25" rx="5" fill="white"/>
<rect x="20" y="68" width="332" height="198" fill="#D9D9D9"/>
<path d="M27.0568 77.2727H28.0966V84.142H28.1818L32.9545 77.2727H33.9773V86H32.9205V79.1477H32.8352L28.0795 86H27.0568V77.2727ZM40.3363 82.267V83.2045H36.7227V82.267H40.3363ZM36.9613 79.4545V86H35.9556V79.4545H36.9613ZM41.1033 79.4545V86H40.0977V79.4545H41.1033ZM42.0494 80.392V79.4545H47.3675V80.392H45.2198V86H44.2141V80.392H42.0494ZM51.239 86.1364C50.6083 86.1364 50.0643 85.9972 49.6069 85.7188C49.1523 85.4375 48.8015 85.0455 48.5543 84.5426C48.31 84.0369 48.1879 83.4489 48.1879 82.7784C48.1879 82.108 48.31 81.517 48.5543 81.0057C48.8015 80.4915 49.1452 80.0909 49.5856 79.804C50.0288 79.5142 50.5458 79.3693 51.1367 79.3693C51.4776 79.3693 51.8143 79.4261 52.1467 79.5398C52.479 79.6534 52.7816 79.8381 53.0543 80.0938C53.3271 80.3466 53.5444 80.6818 53.7063 81.0994C53.8683 81.517 53.9492 82.0312 53.9492 82.642V83.0682H48.9038V82.1989H52.9265C52.9265 81.8295 52.8526 81.5 52.7049 81.2102C52.56 80.9205 52.3526 80.6918 52.0827 80.5241C51.8157 80.3565 51.5004 80.2727 51.1367 80.2727C50.7362 80.2727 50.3896 80.3722 50.0969 80.571C49.8072 80.767 49.5842 81.0227 49.4279 81.3381C49.2717 81.6534 49.1935 81.9915 49.1935 82.3523V82.9318C49.1935 83.4261 49.2788 83.8452 49.4492 84.1889C49.6225 84.5298 49.8626 84.7898 50.1694 84.9688C50.4762 85.1449 50.8327 85.233 51.239 85.233C51.5032 85.233 51.7418 85.196 51.9549 85.1222C52.1708 85.0455 52.3569 84.9318 52.5131 84.7812C52.6694 84.6278 52.7901 84.4375 52.8754 84.2102L53.8469 84.483C53.7447 84.8125 53.5728 85.1023 53.3313 85.3523C53.0898 85.5994 52.7915 85.7926 52.4364 85.9318C52.0813 86.0682 51.6822 86.1364 51.239 86.1364ZM55.479 88.4545V79.4545H56.4506V80.4943H56.57C56.6438 80.3807 56.7461 80.2358 56.8768 80.0597C57.0103 79.8807 57.2006 79.7216 57.4478 79.5824C57.6978 79.4403 58.0359 79.3693 58.462 79.3693C59.0131 79.3693 59.4989 79.5071 59.9194 79.7827C60.3398 80.0582 60.668 80.4489 60.9038 80.9545C61.1396 81.4602 61.2575 82.0568 61.2575 82.7443C61.2575 83.4375 61.1396 84.0384 60.9038 84.5469C60.668 85.0526 60.3413 85.4446 59.9237 85.723C59.506 85.9986 59.0245 86.1364 58.479 86.1364C58.0586 86.1364 57.7219 86.0668 57.4691 85.9276C57.2163 85.7855 57.0217 85.625 56.8853 85.446C56.7489 85.2642 56.6438 85.1136 56.57 84.9943H56.4847V88.4545H55.479ZM56.4677 82.7273C56.4677 83.2216 56.5401 83.6577 56.685 84.0355C56.8299 84.4105 57.0415 84.7045 57.32 84.9176C57.5984 85.1278 57.9393 85.233 58.3427 85.233C58.7631 85.233 59.114 85.1222 59.3952 84.9006C59.6793 84.6761 59.8924 84.375 60.0344 83.9972C60.1793 83.6165 60.2518 83.1932 60.2518 82.7273C60.2518 82.267 60.1808 81.8523 60.0387 81.483C59.8995 81.1108 59.6879 80.8168 59.4038 80.6009C59.1225 80.3821 58.7688 80.2727 58.3427 80.2727C57.9336 80.2727 57.5898 80.3764 57.3114 80.5838C57.033 80.7884 56.8228 81.0753 56.6808 81.4446C56.5387 81.8111 56.4677 82.2386 56.4677 82.7273ZM67.1722 82.267V83.2045H63.5586V82.267H67.1722ZM63.7972 79.4545V86H62.7915V79.4545H63.7972ZM67.9393 79.4545V86H66.9336V79.4545H67.9393ZM72.5202 86.1364C71.8896 86.1364 71.3455 85.9972 70.8881 85.7188C70.4336 85.4375 70.0827 85.0455 69.8356 84.5426C69.5913 84.0369 69.4691 83.4489 69.4691 82.7784C69.4691 82.108 69.5913 81.517 69.8356 81.0057C70.0827 80.4915 70.4265 80.0909 70.8668 79.804C71.31 79.5142 71.8271 79.3693 72.418 79.3693C72.7589 79.3693 73.0955 79.4261 73.4279 79.5398C73.7603 79.6534 74.0629 79.8381 74.3356 80.0938C74.6083 80.3466 74.8256 80.6818 74.9876 81.0994C75.1495 81.517 75.2305 82.0312 75.2305 82.642V83.0682H70.185V82.1989H74.2077C74.2077 81.8295 74.1339 81.5 73.9862 81.2102C73.8413 80.9205 73.6339 80.6918 73.364 80.5241C73.0969 80.3565 72.7816 80.2727 72.418 80.2727C72.0174 80.2727 71.6708 80.3722 71.3782 80.571C71.0884 80.767 70.8654 81.0227 70.7092 81.3381C70.5529 81.6534 70.4748 81.9915 70.4748 82.3523V82.9318C70.4748 83.4261 70.56 83.8452 70.7305 84.1889C70.9038 84.5298 71.1438 84.7898 71.4506 84.9688C71.7575 85.1449 72.114 85.233 72.5202 85.233C72.7844 85.233 73.0231 85.196 73.2362 85.1222C73.4521 85.0455 73.6381 84.9318 73.7944 84.7812C73.9506 84.6278 74.0714 84.4375 74.1566 84.2102L75.1282 84.483C75.0259 84.8125 74.854 85.1023 74.6126 85.3523C74.3711 85.5994 74.0728 85.7926 73.7177 85.9318C73.3626 86.0682 72.9634 86.1364 72.5202 86.1364ZM76.1509 80.392V79.4545H81.4691V80.392H79.3214V86H78.3157V80.392H76.1509Z" fill="black"/>
<path d="M33.0568 33.2727H34.0966V40.142H34.1818L38.9545 33.2727H39.9773V42H38.9205V35.1477H38.8352L34.0795 42H33.0568V33.2727ZM46.3363 38.267V39.2045H42.7227V38.267H46.3363ZM42.9613 35.4545V42H41.9556V35.4545H42.9613ZM47.1033 35.4545V42H46.0977V35.4545H47.1033ZM48.0494 36.392V35.4545H53.3675V36.392H51.2198V42H50.2141V36.392H48.0494ZM57.239 42.1364C56.6083 42.1364 56.0643 41.9972 55.6069 41.7188C55.1523 41.4375 54.8015 41.0455 54.5543 40.5426C54.31 40.0369 54.1879 39.4489 54.1879 38.7784C54.1879 38.108 54.31 37.517 54.5543 37.0057C54.8015 36.4915 55.1452 36.0909 55.5856 35.804C56.0288 35.5142 56.5458 35.3693 57.1367 35.3693C57.4776 35.3693 57.8143 35.4261 58.1467 35.5398C58.479 35.6534 58.7816 35.8381 59.0543 36.0938C59.3271 36.3466 59.5444 36.6818 59.7063 37.0994C59.8683 37.517 59.9492 38.0312 59.9492 38.642V39.0682H54.9038V38.1989H58.9265C58.9265 37.8295 58.8526 37.5 58.7049 37.2102C58.56 36.9205 58.3526 36.6918 58.0827 36.5241C57.8157 36.3565 57.5004 36.2727 57.1367 36.2727C56.7362 36.2727 56.3896 36.3722 56.0969 36.571C55.8072 36.767 55.5842 37.0227 55.4279 37.3381C55.2717 37.6534 55.1935 37.9915 55.1935 38.3523V38.9318C55.1935 39.4261 55.2788 39.8452 55.4492 40.1889C55.6225 40.5298 55.8626 40.7898 56.1694 40.9688C56.4762 41.1449 56.8327 41.233 57.239 41.233C57.5032 41.233 57.7418 41.196 57.9549 41.1222C58.1708 41.0455 58.3569 40.9318 58.5131 40.7812C58.6694 40.6278 58.7901 40.4375 58.8754 40.2102L59.8469 40.483C59.7447 40.8125 59.5728 41.1023 59.3313 41.3523C59.0898 41.5994 58.7915 41.7926 58.4364 41.9318C58.0813 42.0682 57.6822 42.1364 57.239 42.1364ZM61.479 44.4545V35.4545H62.4506V36.4943H62.57C62.6438 36.3807 62.7461 36.2358 62.8768 36.0597C63.0103 35.8807 63.2006 35.7216 63.4478 35.5824C63.6978 35.4403 64.0359 35.3693 64.462 35.3693C65.0131 35.3693 65.4989 35.5071 65.9194 35.7827C66.3398 36.0582 66.668 36.4489 66.9038 36.9545C67.1396 37.4602 67.2575 38.0568 67.2575 38.7443C67.2575 39.4375 67.1396 40.0384 66.9038 40.5469C66.668 41.0526 66.3413 41.4446 65.9237 41.723C65.506 41.9986 65.0245 42.1364 64.479 42.1364C64.0586 42.1364 63.7219 42.0668 63.4691 41.9276C63.2163 41.7855 63.0217 41.625 62.8853 41.446C62.7489 41.2642 62.6438 41.1136 62.57 40.9943H62.4847V44.4545H61.479ZM62.4677 38.7273C62.4677 39.2216 62.5401 39.6577 62.685 40.0355C62.8299 40.4105 63.0415 40.7045 63.32 40.9176C63.5984 41.1278 63.9393 41.233 64.3427 41.233C64.7631 41.233 65.114 41.1222 65.3952 40.9006C65.6793 40.6761 65.8924 40.375 66.0344 39.9972C66.1793 39.6165 66.2518 39.1932 66.2518 38.7273C66.2518 38.267 66.1808 37.8523 66.0387 37.483C65.8995 37.1108 65.6879 36.8168 65.4038 36.6009C65.1225 36.3821 64.7688 36.2727 64.3427 36.2727C63.9336 36.2727 63.5898 36.3764 63.3114 36.5838C63.033 36.7884 62.8228 37.0753 62.6808 37.4446C62.5387 37.8111 62.4677 38.2386 62.4677 38.7273ZM73.1722 38.267V39.2045H69.5586V38.267H73.1722ZM69.7972 35.4545V42H68.7915V35.4545H69.7972ZM73.9393 35.4545V42H72.9336V35.4545H73.9393ZM78.5202 42.1364C77.8896 42.1364 77.3455 41.9972 76.8881 41.7188C76.4336 41.4375 76.0827 41.0455 75.8356 40.5426C75.5913 40.0369 75.4691 39.4489 75.4691 38.7784C75.4691 38.108 75.5913 37.517 75.8356 37.0057C76.0827 36.4915 76.4265 36.0909 76.8668 35.804C77.31 35.5142 77.8271 35.3693 78.418 35.3693C78.7589 35.3693 79.0955 35.4261 79.4279 35.5398C79.7603 35.6534 80.0629 35.8381 80.3356 36.0938C80.6083 36.3466 80.8256 36.6818 80.9876 37.0994C81.1495 37.517 81.2305 38.0312 81.2305 38.642V39.0682H76.185V38.1989H80.2077C80.2077 37.8295 80.1339 37.5 79.9862 37.2102C79.8413 36.9205 79.6339 36.6918 79.364 36.5241C79.0969 36.3565 78.7816 36.2727 78.418 36.2727C78.0174 36.2727 77.6708 36.3722 77.3782 36.571C77.0884 36.767 76.8654 37.0227 76.7092 37.3381C76.5529 37.6534 76.4748 37.9915 76.4748 38.3523V38.9318C76.4748 39.4261 76.56 39.8452 76.7305 40.1889C76.9038 40.5298 77.1438 40.7898 77.4506 40.9688C77.7575 41.1449 78.114 41.233 78.5202 41.233C78.7844 41.233 79.0231 41.196 79.2362 41.1222C79.4521 41.0455 79.6381 40.9318 79.7944 40.7812C79.9506 40.6278 80.0714 40.4375 80.1566 40.2102L81.1282 40.483C81.0259 40.8125 80.854 41.1023 80.6126 41.3523C80.3711 41.5994 80.0728 41.7926 79.7177 41.9318C79.3626 42.0682 78.9634 42.1364 78.5202 42.1364ZM82.1509 36.392V35.4545H87.4691V36.392H85.3214V42H84.3157V36.392H82.1509Z" fill="black"/>
<rect x="26" y="102" width="100" height="65" fill="url(#paint0_linear_7_324)"/>
<rect x="26" y="187" width="100" height="65" fill="url(#paint1_linear_7_324)"/>
<rect x="136" y="102" width="100" height="65" fill="url(#paint2_linear_7_324)"/>
<rect x="136" y="187" width="100" height="65" fill="url(#paint3_linear_7_324)"/>
<rect x="246" y="102" width="100" height="65" fill="url(#paint4_linear_7_324)"/>
<rect x="246" y="187" width="100" height="65" fill="url(#paint5_linear_7_324)"/>
<defs>
<linearGradient id="paint0_linear_7_324" x1="28.5" y1="167" x2="126" y2="102" gradientUnits="userSpaceOnUse">
<stop stop-color="#646464"/>
<stop offset="1" stop-color="#646464" stop-opacity="0"/>
</linearGradient>
<linearGradient id="paint1_linear_7_324" x1="28.5" y1="252" x2="126" y2="187" gradientUnits="userSpaceOnUse">
<stop stop-color="#646464"/>
<stop offset="1" stop-color="#646464" stop-opacity="0"/>
</linearGradient>
<linearGradient id="paint2_linear_7_324" x1="138.5" y1="167" x2="236" y2="102" gradientUnits="userSpaceOnUse">
<stop stop-color="#646464"/>
<stop offset="1" stop-color="#646464" stop-opacity="0"/>
</linearGradient>
<linearGradient id="paint3_linear_7_324" x1="138.5" y1="252" x2="236" y2="187" gradientUnits="userSpaceOnUse">
<stop stop-color="#646464"/>
<stop offset="1" stop-color="#646464" stop-opacity="0"/>
</linearGradient>
<linearGradient id="paint4_linear_7_324" x1="248.5" y1="167" x2="346" y2="102" gradientUnits="userSpaceOnUse">
<stop stop-color="#646464"/>
<stop offset="1" stop-color="#646464" stop-opacity="0"/>
</linearGradient>
<linearGradient id="paint5_linear_7_324" x1="248.5" y1="252" x2="346" y2="187" gradientUnits="userSpaceOnUse">
<stop stop-color="#646464"/>
<stop offset="1" stop-color="#646464" stop-opacity="0"/>
</linearGradient>
</defs>
</svg>
