<svg width="565" height="570" viewBox="0 0 565 570" fill="none" xmlns="http://www.w3.org/2000/svg">
<path d="M562.869 320.582C563.494 320.582 564 320.076 564 319.451C564 318.826 563.494 318.32 562.869 318.32C562.244 318.32 561.738 318.826 561.738 319.451C561.738 320.076 562.244 320.582 562.869 320.582Z" stroke="white" stroke-width="1.69757"/>
<path d="M265.501 13.9509C266.126 13.9509 266.632 13.4445 266.632 12.8197C266.632 12.1949 266.126 11.6885 265.501 11.6885C264.876 11.6885 264.37 12.1949 264.37 12.8197C264.37 13.4445 264.876 13.9509 265.501 13.9509Z" stroke="white" stroke-width="1.69757"/>
<path d="M13.7054 208.888C14.3302 208.888 14.8367 208.382 14.8367 207.757C14.8367 207.132 14.3302 206.626 13.7054 206.626C13.0807 206.626 12.5742 207.132 12.5742 207.757C12.5742 208.382 13.0807 208.888 13.7054 208.888Z" stroke="white" stroke-width="1.69757"/>
<path d="M195.983 470.24C196.608 470.24 197.114 469.733 197.114 469.108C197.114 468.484 196.608 467.977 195.983 467.977C195.359 467.977 194.852 468.484 194.852 469.108C194.852 469.733 195.359 470.24 195.983 470.24Z" stroke="white" stroke-width="1.69757"/>
<path d="M530.139 226.135C530.764 226.135 531.271 225.629 531.271 225.004C531.271 224.379 530.764 223.873 530.139 223.873C529.515 223.873 529.008 224.379 529.008 225.004C529.008 225.629 529.515 226.135 530.139 226.135Z" stroke="white" stroke-width="1.69757"/>
<path d="M198.031 106.058C198.656 106.058 199.162 105.552 199.162 104.927C199.162 104.302 198.656 103.796 198.031 103.796C197.406 103.796 196.9 104.302 196.9 104.927C196.9 105.552 197.406 106.058 198.031 106.058Z" stroke="white" stroke-width="1.69757"/>
<path d="M508.114 459.577C508.738 459.577 509.245 459.071 509.245 458.446C509.245 457.821 508.738 457.315 508.114 457.315C507.489 457.315 506.982 457.821 506.982 458.446C506.982 459.071 507.489 459.577 508.114 459.577Z" stroke="white" stroke-width="1.69757"/>
<path d="M538.398 510.485L544.628 515.017" stroke="white" stroke-width="1.69757" stroke-linecap="round"/>
<path d="M91.7584 1L97.9885 5.53124" stroke="white" stroke-width="1.69757" stroke-linecap="round"/>
<path d="M214.559 289.128L220.789 293.661" stroke="white" stroke-width="1.69757" stroke-linecap="round"/>
<path d="M279.082 557.409L272.76 561.813" stroke="white" stroke-width="1.69757" stroke-linecap="round"/>
<path d="M463.357 537.622L457.036 542.026" stroke="white" stroke-width="1.69757" stroke-linecap="round"/>
<path d="M25.6853 92.5558L19.3641 96.9589" stroke="white" stroke-width="1.69757" stroke-linecap="round"/>
<path d="M141.082 209.24L134.76 213.643" stroke="white" stroke-width="1.69757" stroke-linecap="round"/>
<path d="M339.471 28.4059L346.641 25.5887" stroke="white" stroke-width="1.69757" stroke-linecap="round"/>
<path d="M496.827 12.8193L501.018 19.2833" stroke="white" stroke-width="1.69757" stroke-linecap="round"/>
<path d="M107.593 561.814L111.784 568.277" stroke="white" stroke-width="1.69757" stroke-linecap="round"/>
<path d="M95.8734 501.481C97.5396 501.101 99.241 500.632 100.977 500.072M3.26137 410.326C0.771887 423.238 -0.719216 443.637 4.58336 456.827L3.26137 410.326ZM113.347 494.723C109.685 496.694 106.152 498.26 102.748 499.47L113.347 494.723ZM6.38151 460.551C7.16791 461.909 8.0551 463.148 9.05264 464.245L6.38151 460.551ZM10.8279 465.945C12.1586 467.048 13.6511 467.933 15.3211 468.559L10.8279 465.945ZM16.9304 469.068C19.2966 469.684 21.9841 469.824 25.0291 469.399C52.2906 465.582 58.7064 433.247 58.5067 417.555C57.9531 405.632 50.6853 390.339 38.3132 407.654C25.9413 424.97 35.0371 458.796 41.1316 473.543C46.1424 484.469 59.2112 500.335 79.6975 502.544L16.9304 469.068ZM83.8088 502.797C84.749 502.812 85.7035 502.799 86.6719 502.754L83.8088 502.797ZM88.8037 502.612C90.4412 502.466 92.1175 502.232 93.8321 501.91L88.8037 502.612Z" stroke="white" stroke-width="1.69757" stroke-linecap="round"/>
<path d="M132.616 156.68L136.803 151.796M17.5029 313.568L114.054 182.661L17.5029 313.568ZM53.6355 306.46L87.9912 270.327L53.6355 306.46ZM100.055 182.661L103.079 179.24L100.055 182.661ZM101.451 172.263L103.079 169.007L101.451 172.263Z" stroke="white" stroke-width="1.69757" stroke-linecap="round"/>
<path d="M142.193 74.0983C141.877 74.3358 141.54 74.5667 141.182 74.7895M139.901 44.1434C142.553 45.6292 146.379 48.4077 147.918 51.3118L139.901 44.1434ZM138.393 76.177C139.287 75.8241 140.09 75.4335 140.812 75.0127L138.393 76.177ZM148.308 52.1846C148.43 52.526 148.517 52.8677 148.562 53.2076L148.308 52.1846ZM148.598 53.7748C148.594 54.1742 148.528 54.5699 148.389 54.9584L148.598 53.7748ZM148.239 55.3185C147.995 55.8284 147.619 56.3241 147.09 56.7984C142.35 61.0453 135.681 57.3563 132.939 54.9809C130.915 53.1051 129.298 49.5404 134.201 49.937C139.105 50.3338 143.724 56.9851 145.421 60.2612C146.604 62.776 147.457 67.4507 144.792 71.399L148.239 55.3185ZM144.224 72.1629C144.086 72.3314 143.942 72.498 143.79 72.6626L144.224 72.1629ZM143.446 73.0176C143.176 73.2852 142.885 73.5468 142.572 73.8013L143.446 73.0176Z" stroke="white" stroke-width="1.69757" stroke-linecap="round"/>
<path d="M267.424 413.445H286.46M538.967 413.445V325.517H399.531L538.967 413.445ZM116.177 413.445C112.14 406.602 112.281 392.595 145.135 391.332L116.177 413.445ZM116.177 413.445L66.595 395.398C66.595 391.948 69.7614 385.229 82.4272 385.959C71.1772 381.658 55.4271 371.802 82.4272 366.779C71.1621 366.372 48.9449 364.791 68.6741 352.855L116.21 333.498L116.177 413.445ZM116.177 413.445H214.899H116.177ZM145.135 391.332C123.899 389.753 95.2218 384.277 150.4 375.01C125.479 368.341 88.5877 353.423 140.397 347.104L145.135 391.332ZM145.135 391.332H314.673H145.135ZM140.397 347.104H205.157H140.397ZM140.397 347.104C128.146 344.49 112.359 340.728 121.811 332.968L140.397 347.104ZM408.918 391.332H499.479H408.918ZM257.809 347.104H329.971H257.809ZM397.848 347.104H512.642H397.848ZM334.953 325.517H159.691H334.953ZM500.75 413.445H393.146H500.75ZM225.827 413.445H247.683H225.827Z" stroke="white" stroke-width="1.69757" stroke-linecap="round"/>
<path d="M11.7255 376.576L67.3553 396.582C70.4565 385.79 85.0769 387.088 88.5503 387.088C84.3821 385.798 74.9082 380.735 72.4684 378.917C71.4348 377.8 66.3732 374.552 70.8519 371.318C73.5497 369.37 102.044 365.633 106.096 365.013C101.299 364.931 70.5034 366.507 67.3553 361.128C64.9734 357.06 70.8837 351.369 74.564 349.385L11.7255 376.576Z" fill="black"/>
<path d="M365.849 193.002L344.073 177.381M335.237 203.046L370.167 222.576C379.856 227.512 386.16 225.029 392.781 214.15C399.403 203.271 397.413 168.624 395.59 152.66L415.988 142.609L418.106 138.094L335.237 203.046ZM389.086 138.137L381.103 144.087L365.849 193.002L389.086 138.137ZM363.219 201.437L365.849 193.002L363.219 201.437Z" stroke="white" stroke-width="1.69757" stroke-linecap="round"/>
<path d="M425.465 188.904L377.85 277.746M239.908 245.603V254.693V245.603ZM254.774 284.328C274.524 281.704 316.033 277.033 347.067 276.002L254.774 284.328ZM320.188 245.972L323.333 254.693L320.188 245.972ZM353.282 213.344L326.696 262.752L323.333 254.693L353.282 213.344ZM397.173 172.464C409.461 158.921 439.958 138.155 463.635 163.436C479.887 181.894 461.545 264.424 450.343 303.384H428.856L397.173 172.464ZM401.039 303.384C401.092 304.211 401.094 304.994 401.056 305.722L388.617 471.411H324.088L401.039 303.384ZM401.039 303.384H428.856H401.039ZM401.039 303.384C400.524 295.125 395.204 282.501 377.85 277.746L401.039 303.384ZM239.908 254.693L240.98 325.414H337.194L290.101 471.411H324.088L239.908 254.693ZM239.908 254.693H254.774H239.908ZM323.333 254.693H254.774H323.333ZM254.774 254.693L248.311 305.722H364.238L324.088 471.411L254.774 254.693ZM347.067 276.002C353.299 275.796 359.111 275.737 364.238 275.87C369.439 276.004 373.948 276.677 377.85 277.746L347.067 276.002ZM347.067 276.002L436.909 168.136L428.856 303.384L347.067 276.002Z" stroke="white" stroke-width="1.69757"/>
<path d="M295.058 492.783L308.863 471.09H351.404L348.304 482.075L389.436 546.591L386.901 549.407L313.088 502.924L316.471 490.527L306.328 500.106L295.058 492.783Z" fill="black"/>
<path d="M406.056 317.815L403.588 325.787L399.9 325.747L401.018 303.292H430.318L482.291 322.969L481.833 325.681H408.517L406.056 317.815Z" fill="black"/>
<path d="M280.155 143.915V150.543H289.021M263.502 140.606V150.543H254.968L263.502 140.606Z" stroke="white" stroke-width="1.69757" stroke-linecap="round"/>
<path d="M263.848 143.641V140.363L261.966 137.814C271.29 127.423 275.846 118.391 276.96 115.174C279.727 117.553 283.007 119.038 284.304 119.484C285.08 120.989 285.517 122.984 285.638 123.793C286.103 128.103 285.613 137.935 279.932 142.791C274.252 147.647 267.693 143.965 265.123 141.517C265.628 142.609 266.653 144.641 268.279 146.069C271.867 149.223 278.617 148.901 280.357 148.011V143.944L291.707 142.791C289.543 128.487 281.609 100.983 267.186 105.402C252.765 109.82 250.414 132.938 251.04 143.944L263.848 143.641Z" fill="white"/>
<path d="M285.464 122.665C283.459 122.832 281.308 124.015 280.499 126.498C279.406 129.853 280.412 133.972 283.336 136.367C283.084 136.46 280.41 136.636 277.974 134.981" stroke="white" stroke-width="1.69757" stroke-linecap="round"/>
<path d="M275.258 124.457C273.885 123.933 270.747 123.703 269.185 126.98" stroke="white" stroke-width="1.69757" stroke-linecap="round"/>
<path d="M278.613 139.603C277.83 139.866 275.92 140.029 274.543 138.58" stroke="white" stroke-width="1.69757" stroke-linecap="round"/>
<path d="M275.485 128.861C274.473 127.698 271.85 126.129 269.461 129.158" stroke="white" stroke-width="1.69757" stroke-linecap="round"/>
<path d="M286.487 127.694C285.375 126.625 282.625 125.296 280.514 128.526" stroke="white" stroke-width="1.69757" stroke-linecap="round"/>
<path d="M272.526 130.087C271.846 130.12 271.268 129.596 271.234 128.917C271.201 128.237 271.725 127.659 272.405 127.625C273.084 127.592 273.663 128.116 273.696 128.795C273.73 129.475 273.206 130.053 272.526 130.087Z" fill="white"/>
<path d="M283.651 129.177C282.976 129.271 282.354 128.801 282.26 128.127C282.166 127.453 282.636 126.83 283.31 126.736C283.985 126.642 284.607 127.113 284.701 127.787C284.795 128.461 284.325 129.083 283.651 129.177Z" fill="white"/>
<path d="M200.543 201.147L150.441 303.319L113.015 295.515C109.412 294.662 108.102 296.043 109.98 298.405C107.68 297.093 102.899 298.619 105.067 303.319C102.899 302.638 99.9185 304.263 101.31 307.51C101.454 307.845 101.975 308.664 102.899 309.244C103.824 309.821 106.753 311.122 108.102 311.699H100.443C98.0722 311.699 96.3767 315.745 100.443 316.902L128.043 321.381L115.182 327.45C112.808 328.815 111.738 333.929 117.639 333.519C120.413 333.519 144.131 329.475 155.643 327.45L164.602 322.971L228.566 222.818" stroke="white" stroke-width="1.69757"/>
<path d="M107.205 311.608L121.939 313.418M109.845 298.337L128.985 304.219L109.845 298.337ZM104.847 303.241L125.593 309.7L104.847 303.241Z" stroke="white" stroke-width="1.69757" stroke-linecap="round"/>
<path d="M232.084 155.113C238.828 152.074 250.299 149.75 255.407 149.573C255.407 154.921 257.824 166.629 268.052 167.613C283.056 169.396 286.453 155.928 286.428 149.573H299.181C312.286 149.573 318.571 155.154 322.034 157.562L345.819 177.117L333.663 212.703L312.522 201.958L322.034 247.762H239.057L237.296 214.114L227.857 231.124L196.049 204.252C205.373 188.076 219.705 160.692 232.084 155.113Z" fill="#0C0C0C"/>
<path d="M311.431 198.859L309.307 189.871M237.082 211.44V201.8V211.44Z" stroke="#0E0E0E" stroke-width="1.69757" stroke-linecap="round"/>
<path fill-rule="evenodd" clip-rule="evenodd" d="M469.39 82.8232L472.439 134.672H385.407V81.9409L469.39 82.8232Z" stroke="black" stroke-width="1.69757"/>
<path fill-rule="evenodd" clip-rule="evenodd" d="M352.922 135.531H472.556L472.836 137.596L352.922 137.521V135.531Z" stroke="black" stroke-width="1.69757"/>
<path fill-rule="evenodd" clip-rule="evenodd" d="M465.348 85.4012L468.089 132.005H389.757V84.6069L465.348 85.4012Z" stroke="black" stroke-width="1.69757"/>
<path d="M444.026 122.104C444.503 121.995 444.994 121.861 445.49 121.699M417.446 95.9429C416.733 99.6487 416.305 105.503 417.826 109.288L417.446 95.9429ZM449.04 120.164C447.99 120.73 446.976 121.18 445.999 121.527L449.04 120.164ZM418.342 110.357C418.569 110.747 418.823 111.102 419.11 111.417L418.342 110.357ZM419.619 111.905C420.001 112.222 420.43 112.476 420.907 112.656L419.619 111.905ZM421.37 112.802C422.049 112.978 422.821 113.019 423.693 112.896C431.519 111.801 433.359 102.521 433.302 98.0178C433.142 94.5959 431.057 90.2068 427.507 95.1763C423.956 100.145 426.566 109.853 428.315 114.086C429.754 117.222 433.505 121.775 439.383 122.409L421.37 112.802ZM440.563 122.481C440.835 122.486 441.108 122.482 441.386 122.469L440.563 122.481ZM441.997 122.428C442.466 122.386 442.948 122.32 443.44 122.227L441.997 122.428Z" stroke="white" stroke-width="1.69757" stroke-linecap="round"/>
</svg>
