<svg width="573" height="573" viewBox="0 0 573 573" fill="none" xmlns="http://www.w3.org/2000/svg">
<path d="M360.7 262.429C361.325 262.429 361.832 261.922 361.832 261.297C361.832 260.672 361.325 260.165 360.7 260.165C360.074 260.165 359.568 260.672 359.568 261.297C359.568 261.922 360.074 262.429 360.7 262.429Z" stroke="white" stroke-width="1.70869"/>
<path d="M275.65 14.029C276.275 14.029 276.782 13.5222 276.782 12.897C276.782 12.2718 276.275 11.765 275.65 11.765C275.025 11.765 274.518 12.2718 274.518 12.897C274.518 13.5222 275.025 14.029 275.65 14.029Z" stroke="white" stroke-width="1.70869"/>
<path d="M22.2092 210.229C22.8343 210.229 23.3412 209.722 23.3412 209.097C23.3412 208.471 22.8343 207.965 22.2092 207.965C21.584 207.965 21.0771 208.471 21.0771 209.097C21.0771 209.722 21.584 210.229 22.2092 210.229Z" stroke="white" stroke-width="1.70869"/>
<path d="M515.87 46.3017C516.495 46.3017 517.002 45.7949 517.002 45.1697C517.002 44.5445 516.495 44.0377 515.87 44.0377C515.244 44.0377 514.738 44.5445 514.738 45.1697C514.738 45.7949 515.244 46.3017 515.87 46.3017Z" stroke="white" stroke-width="1.70869"/>
<path d="M542.013 227.593C542.638 227.593 543.145 227.086 543.145 226.461C543.145 225.836 542.638 225.329 542.013 225.329C541.387 225.329 540.881 225.836 540.881 226.461C540.881 227.086 541.387 227.593 542.013 227.593Z" stroke="white" stroke-width="1.70869"/>
<path d="M207.73 106.746C208.355 106.746 208.862 106.239 208.862 105.614C208.862 104.989 208.355 104.482 207.73 104.482C207.104 104.482 206.598 104.989 206.598 105.614C206.598 106.239 207.104 106.746 207.73 106.746Z" stroke="white" stroke-width="1.70869"/>
<path d="M519.842 462.559C520.468 462.559 520.974 462.052 520.974 461.427C520.974 460.802 520.468 460.295 519.842 460.295C519.217 460.295 518.71 460.802 518.71 461.427C518.71 462.052 519.217 462.559 519.842 462.559Z" stroke="white" stroke-width="1.70869"/>
<path d="M548.805 344.339L555.084 348.889" stroke="white" stroke-width="1.70869" stroke-linecap="round"/>
<path d="M100.766 1L107.045 5.57073" stroke="white" stroke-width="1.70869" stroke-linecap="round"/>
<path d="M289.319 561.043L282.955 565.486" stroke="white" stroke-width="1.70869" stroke-linecap="round"/>
<path d="M474.797 541.137L468.432 545.58" stroke="white" stroke-width="1.70869" stroke-linecap="round"/>
<path d="M34.2552 93.1625L27.8904 97.6051" stroke="white" stroke-width="1.70869" stroke-linecap="round"/>
<path d="M125.734 189.318L119.369 193.761" stroke="white" stroke-width="1.70869" stroke-linecap="round"/>
<path d="M1 391.242L8.2192 388.402" stroke="white" stroke-width="1.70869" stroke-linecap="round"/>
<path d="M399.893 1.29939L404.122 7.81376" stroke="white" stroke-width="1.70869" stroke-linecap="round"/>
<path d="M457.219 235.303L461.448 241.818" stroke="white" stroke-width="1.70869" stroke-linecap="round"/>
<path d="M116.699 565.486L120.907 572" stroke="white" stroke-width="1.70869" stroke-linecap="round"/>
<path d="M152.539 134.47C153.885 134.171 155.23 133.786 156.619 133.338M78.318 61.4446C76.3316 71.7822 75.1356 88.1429 79.3859 98.694L78.318 61.4446ZM166.529 129.066C163.603 130.646 160.762 131.907 158.028 132.868L166.529 129.066ZM80.8169 101.684C81.4577 102.773 82.1625 103.756 82.9528 104.653L80.8169 101.684ZM84.3838 105.999C85.4518 106.874 86.6478 107.601 87.9934 108.092L84.3838 105.999ZM89.2749 108.498C91.1758 108.989 93.3331 109.096 95.7679 108.754C117.618 105.7 122.744 79.7917 122.594 67.2115C122.146 57.6642 116.336 45.4044 106.405 59.2874C96.4941 73.1705 103.777 100.275 108.669 112.086C112.684 120.843 123.15 133.551 139.574 135.324L89.2749 108.498ZM142.864 135.538C143.611 135.559 144.38 135.538 145.149 135.495L142.864 135.538ZM146.858 135.388C148.161 135.281 149.506 135.089 150.894 134.833L146.858 135.388Z" stroke="white" stroke-width="1.70869" stroke-linecap="round"/>
<path d="M492.29 400.897C492.717 400.79 493.144 400.683 493.593 400.534M468.646 377.616C468.005 380.905 467.621 386.117 468.988 389.491L468.646 377.616ZM496.754 399.167C495.814 399.658 494.917 400.064 494.041 400.384L496.754 399.167ZM469.436 390.453C469.628 390.794 469.863 391.115 470.12 391.392L469.436 390.453ZM470.568 391.82C470.91 392.097 471.294 392.332 471.721 392.482L470.568 391.82ZM472.127 392.631C472.725 392.781 473.409 392.823 474.199 392.717C481.162 391.734 482.807 383.49 482.742 379.474C482.593 376.42 480.735 372.533 477.574 376.954C474.413 381.375 476.741 390.025 478.3 393.785C479.581 396.583 482.913 400.619 488.146 401.196L472.127 392.631ZM489.214 401.239C489.449 401.239 489.705 401.239 489.94 401.217L489.214 401.239ZM490.496 401.196C490.923 401.153 491.35 401.089 491.777 401.025L490.496 401.196Z" stroke="#FFCC3E" stroke-width="1.70869" stroke-linecap="round"/>
<path d="M449.957 358.521L445.792 291.391L357.282 298.269M256.918 306.107L290.046 303.523L256.918 306.107Z" stroke="white" stroke-width="1.70869"/>
<path d="M232.057 338.871L448.953 349.828" stroke="white" stroke-width="1.70869"/>
<path d="M217.597 358.414L278.298 276.056L303.202 333.724L362.686 309.097C350.106 282.442 317.128 225.735 289.447 212.727" stroke="white" stroke-width="1.70869" stroke-linecap="round"/>
<path d="M306.47 358.927L307.752 332.036L344.083 316.786L346.24 322.339L405.531 355.445L404.891 358.927H327.316L323.578 346.539L320.161 358.927H306.47Z" fill="black"/>
<path d="M507.369 357.325L480.5 355.382L450.128 357.325L447.501 318.688H466.147L471.764 316.68L513.392 263.817L516.873 264.544L507.882 336.501L495.408 339.918L507.711 343.634L507.369 357.325Z" fill="black"/>
<path d="M276.419 243.783L336.735 319.884M179.835 358.201L241.177 279.26L179.835 358.201Z" stroke="white" stroke-width="1.70869" stroke-linecap="round"/>
<path d="M267.982 210.058C264.244 210.272 253.971 213.817 242.907 226.269" stroke="white" stroke-width="1.70869" stroke-linecap="round"/>
<path d="M220.203 252.006L203.992 270.61" stroke="white" stroke-width="1.70869" stroke-linecap="round"/>
<path d="M239.169 221.335L251.216 238.401L270.502 206.769V202.604M217.32 248.204L239.169 277.316C242.672 280.413 251.664 284.45 259.503 275.821C267.341 267.192 284.193 226.205 291.626 206.79L217.32 248.204Z" stroke="white" stroke-width="1.70869" stroke-linecap="round"/>
<path d="M334.941 163.069H344.318L340.964 169.819M278.79 201.088L247.841 206.449L250.084 199.699L278.79 201.088ZM278.79 201.088L244.594 199.721L246.047 194.21L278.79 201.088ZM278.79 201.088L235.474 191.967L259.182 146.538L296.624 162.13L278.79 201.088ZM278.79 201.088L296.645 162.151L278.79 201.088ZM278.79 201.088L314.864 205.21L334.941 163.091L278.79 201.088ZM278.79 201.088L319.157 213.582L340.943 169.819L278.79 201.088ZM278.79 201.088L319.157 220.759L344.318 170.801L340.964 169.84L278.79 201.088ZM296.645 162.151L336.265 160.314L334.941 163.069L296.645 162.151Z" stroke="white" stroke-width="1.70869"/>
<path d="M210.036 30.4323V33.273M361.853 149.357L425.779 72.2737L361.853 149.357ZM347.564 113.282L356.449 77.7842L347.564 113.282ZM366.851 205.338L444.062 177.294L366.851 205.338ZM266.637 128.682L264.394 43.0552L266.637 128.682ZM415.634 60.4411L413.092 64.6701L415.634 60.4411ZM411.896 75.5416L414.523 72.2951L411.896 75.5416ZM441.029 55.9131L444.062 53.286L441.029 55.9131ZM232.676 20.5219V24.1529V20.5219ZM231.267 46.4085V49.0356V46.4085Z" stroke="white" stroke-width="1.70869" stroke-linecap="round"/>
<path d="M313.113 191.689C313.39 191.625 313.689 191.54 313.967 191.454M297.521 176.397C297.115 178.575 296.859 181.993 297.756 184.214L297.521 176.397ZM316.039 190.536C315.42 190.878 314.821 191.134 314.266 191.348L316.039 190.536ZM298.055 184.833C298.183 185.068 298.333 185.26 298.504 185.453L298.055 184.833ZM298.824 185.73C299.038 185.923 299.294 186.072 299.571 186.157L298.824 185.73ZM299.828 186.264C300.234 186.371 300.682 186.392 301.195 186.307C305.765 185.666 306.833 180.22 306.812 177.593C306.727 175.585 305.488 173.022 303.416 175.927C301.344 178.831 302.882 184.513 303.907 186.99C304.762 188.827 306.962 191.476 310.4 191.86L299.828 186.264ZM311.084 191.903C311.233 191.903 311.404 191.903 311.554 191.903H311.084ZM311.917 191.882C312.194 191.86 312.472 191.817 312.771 191.753L311.917 191.882Z" stroke="white" stroke-width="1.70869" stroke-linecap="round"/>
<path d="M228.341 190.963L244.466 219.199L215.376 252.049L211.916 247.435L205.359 267.833C205.359 272.639 205.359 295.385 197.52 309.076C190.002 322.19 174.645 319.243 171.869 333.532C166.572 360.828 159.972 354.399 157.195 358.906H114.841C106.49 312.237 116.635 274.774 128.382 252.027C141.561 226.504 162.086 190.942 183.701 179.131C200.98 169.712 218.729 177.294 228.341 190.963Z" fill="#FFCC3E"/>
<path d="M210.015 245.193L202.54 233.424" stroke="white" stroke-width="1.70869" stroke-linecap="round"/>
<path d="M220.673 153.693C221.1 155.551 221.292 157.537 221.228 159.609C221.186 160.997 221.015 162.321 220.737 163.603C220.011 167.042 220.054 169.797 221.912 172.809C222.019 172.873 219.306 172.253 217.362 171.335C214.693 175.008 210.891 177.251 206.726 177.102C200.724 176.888 195.812 171.741 194.124 164.735" stroke="white" stroke-width="1.70869"/>
<path d="M219.263 160.442C218.537 159.16 216.252 156.96 212.941 158.477" stroke="white" stroke-width="1.70869" stroke-linecap="round"/>
<path d="M211.66 173.77C210.891 173.471 209.31 172.339 209.203 170.331" stroke="black" stroke-width="1.70869" stroke-linecap="round"/>
<path d="M217.896 163.881C217.405 162.407 215.568 159.951 212.172 161.852" stroke="white" stroke-width="1.70869" stroke-linecap="round"/>
<path d="M215.098 163.966C215.782 163.966 216.337 163.412 216.337 162.728C216.337 162.043 215.782 161.489 215.098 161.489C214.414 161.489 213.859 162.043 213.859 162.728C213.859 163.412 214.414 163.966 215.098 163.966Z" fill="white"/>
<path d="M223.257 158.434L220.972 152.561L214.586 151.173L193.761 162.13C193.996 162.77 193.334 164.458 188.785 166.209C183.103 168.409 176.931 172.083 176.14 177.273C175.5 181.416 167.768 183.253 163.987 183.638L213.091 189.319C212.535 188.016 212.13 183.958 215.077 178.063C218.024 172.168 212.792 162.514 209.801 158.434H223.257Z" fill="white"/>
<path d="M188.827 168.836L224.582 151.813L222.788 144.637L220.908 145.021C219.349 141.433 215.44 139.019 210.912 137.204C206.384 135.41 204.74 133.765 199.592 131.587C195.47 129.835 194.274 131.33 194.21 132.291C193.633 135.239 191.668 142.479 188.357 147.904C185.047 153.33 186.606 159.374 187.802 161.723L185.923 163.753L188.827 168.836Z" fill="#FFCC3E"/>
<path fill-rule="evenodd" clip-rule="evenodd" d="M109.502 358.137H532.957C554.507 358.137 572 375.608 572 397.18C572 418.731 554.529 436.224 532.957 436.224H109.502V358.137Z" stroke="white" stroke-width="1.70869"/>
<path d="M108.647 367.107H379.901C396.646 367.107 410.23 380.691 410.23 397.437C410.23 414.182 396.646 427.766 379.901 427.766H108.647" stroke="white" stroke-width="1.70869"/>
<path d="M205.978 407.667H322.703M126.973 401.281L369.499 389.448L126.973 401.281Z" stroke="white" stroke-width="1.70869" stroke-linecap="round"/>
<path d="M171.868 399.102L134.619 401.025V456.429L172.744 459.44L171.868 399.102Z" fill="#FFCC3E"/>
<path d="M429.474 358.713L433.703 436.715M416.787 358.713L418.347 436.715L416.787 358.713Z" stroke="white" stroke-width="1.70869"/>
<path fill-rule="evenodd" clip-rule="evenodd" d="M499.231 437.548H75.7764C54.2256 437.548 36.7329 455.019 36.7329 476.591C36.7329 498.142 54.2042 515.635 75.7764 515.635H499.231V437.548Z" stroke="white" stroke-width="1.70869"/>
<path d="M499.701 442.717H218.793C200.083 442.717 184.919 457.881 184.919 476.613C184.919 495.323 200.083 510.487 218.793 510.487H499.701" stroke="white" stroke-width="1.70869"/>
<path d="M398.099 488.04H276.269M480.564 480.906L227.38 467.663L480.564 480.906Z" stroke="white" stroke-width="1.70869" stroke-linecap="round"/>
<path d="M360.999 473.686L399.893 475.844V537.762L380.307 520.419L360.08 541.137L360.999 473.686Z" fill="#FFCC3E"/>
<path d="M138.998 437.975L134.769 515.977M151.706 437.975L150.147 515.977L151.706 437.975Z" stroke="white" stroke-width="1.70869"/>
</svg>
