<svg width="337" height="284" viewBox="0 0 337 284" fill="none" xmlns="http://www.w3.org/2000/svg">
<rect x="1.5" y="1.5" width="334" height="281" rx="21.5" fill="white" stroke="black" stroke-width="3"/>
<rect x="26" y="32" width="35" height="35" rx="5" fill="#959595"/>
<rect x="76" y="32" width="35" height="35" rx="5" fill="#959595"/>
<rect x="126" y="32" width="35" height="35" rx="5" fill="#959595"/>
<rect x="176" y="32" width="35" height="35" rx="5" fill="#959595"/>
<rect x="226" y="32" width="35" height="35" rx="5" fill="#959595"/>
<rect x="276" y="32" width="35" height="35" rx="5" fill="#959595"/>
<rect x="26" y="83" width="35" height="35" rx="5" fill="#959595"/>
<rect x="76" y="83" width="35" height="35" rx="5" fill="#959595"/>
<rect x="126" y="83" width="35" height="35" rx="5" fill="#959595"/>
<rect x="176" y="83" width="35" height="35" rx="5" fill="#959595"/>
<rect x="226" y="83" width="35" height="35" rx="5" fill="#959595"/>
<rect x="276" y="83" width="35" height="35" rx="5" fill="#959595"/>
<rect x="26" y="134" width="35" height="35" rx="5" fill="#959595"/>
<rect x="76" y="134" width="35" height="35" rx="5" fill="url(#paint0_linear_6_240)"/>
<rect x="51" y="236" width="85" height="35" rx="5" fill="#959595"/>
<rect x="201" y="236" width="85" height="35" rx="5" fill="#959595"/>
<path d="M98 160H88V161C88 161.552 87.5523 162 87 162H86C85.4477 162 85 161.552 85 161V160H84V152H83V148H84V145C84 143.895 84.8954 143 86 143H100C101.105 143 102 143.895 102 145V148H103V152H102V160H101V161C101 161.552 100.552 162 100 162H99C98.4477 162 98 161.552 98 161V160ZM100 152V145H86V152H100ZM100 154H86V158H100V154ZM87 155H91V157H87V155ZM95 155H99V157H95V155Z" fill="black"/>
<path d="M44.001 142C49.551 142 54.001 146.5 54.001 152C54.001 157.5 49.501 162 44.001 162C38.501 162 34.001 157.5 34.001 152C34.001 146.5 38.501 142 44.001 142ZM44.001 144C39.6055 144 36.001 147.605 36.001 152C36.001 156.395 39.6055 160 44.001 160C48.3964 160 52.001 156.395 52.001 152C52.001 147.586 48.4276 144 44.001 144ZM47.751 156.65C45.401 155.2 42.451 154.899 38.9501 155.699C38.6018 155.801 38.301 155.55 38.201 155.25C38.101 154.899 38.351 154.6 38.651 154.5C42.451 153.649 45.751 154 48.351 155.6C48.701 155.75 48.7501 156.149 48.6018 156.45C48.4018 156.749 48.0518 156.85 47.751 156.65ZM48.7501 153.95C46.051 152.3 41.951 151.8 38.801 152.8C38.4018 152.9 37.951 152.7 37.851 152.3C37.751 151.9 37.951 151.449 38.351 151.349C42.001 150.25 46.501 150.801 49.601 152.7C49.9018 152.851 50.051 153.35 49.8018 153.7C49.551 154.05 49.101 154.2 48.7501 153.95ZM38.301 149.751C37.801 149.9 37.301 149.6 37.151 149.15C37.001 148.649 37.301 148.15 37.751 147.999C41.301 146.949 47.151 147.149 50.8518 149.35C51.301 149.6 51.451 150.2 51.201 150.65C50.9518 151.001 50.351 151.149 49.9018 150.9C46.701 149 41.351 148.8 38.301 149.751Z" fill="black"/>
<path d="M290 93C291.105 93 292 93.8954 292 95V101.827C291.106 101.137 289.966 100.731 288.664 100.514L288.336 102.486C289.716 102.716 290.597 103.153 291.14 103.741C291.67 104.315 292 105.167 292 106.5C292 107.881 290.881 109 289.5 109C288.119 109 287 107.881 287 106.5V106.149C287.43 106.293 287.876 106.41 288.336 106.486L288.664 104.514C287.921 104.39 287.175 104.114 286.429 103.76C285.582 103.357 285 102.499 285 101.5C285 100.665 285.208 100.008 285.559 99.5257C285.904 99.0504 286.442 98.6703 287.243 98.4701L288 98.2808V95C288 93.8954 288.895 93 290 93ZM293 92.3542C292.267 91.5238 291.195 91 290 91C287.791 91 286 92.7909 286 95V96.7742C285.149 97.1164 284.451 97.6479 283.941 98.3493C283.292 99.2415 283 100.335 283 101.5C283 103.065 283.796 104.437 285 105.242V106.5C285 108.985 287.015 111 289.5 111C290.914 111 292.175 110.348 293 109.329C293.825 110.348 295.086 111 296.5 111C298.985 111 301 108.985 301 106.5V105.242C302.204 104.437 303 103.065 303 101.5C303 100.335 302.708 99.2415 302.059 98.3493C301.549 97.6479 300.851 97.1164 300 96.7742V95C300 92.7909 298.209 91 296 91C294.805 91 293.733 91.5238 293 92.3542ZM299 106.149V106.5C299 107.881 297.881 109 296.5 109C295.119 109 294 107.881 294 106.5C294 105.167 294.33 104.315 294.86 103.741C295.403 103.153 296.284 102.716 297.664 102.486L297.336 100.514C296.034 100.731 294.894 101.137 294 101.827V95C294 93.8954 294.895 93 296 93C297.105 93 298 93.8954 298 95V98.2808L298.757 98.4701C299.558 98.6703 300.096 99.0504 300.441 99.5257C300.792 100.008 301 100.665 301 101.5C301 102.499 300.418 103.357 299.571 103.76C298.825 104.114 298.078 104.39 297.336 104.514L297.664 106.486C298.124 106.41 298.57 106.293 299 106.149Z" fill="black"/>
<path d="M253.005 92C253.557 92 254.005 92.4477 254.005 93V98.5C252.624 98.5 251.505 99.6193 251.505 101C251.505 102.381 252.624 103.5 254.005 103.5V109C254.005 109.552 253.557 110 253.005 110H235.005C234.453 110 234.005 109.552 234.005 109V103.5C235.386 103.5 236.505 102.381 236.505 101C236.505 99.6193 235.386 98.5 234.005 98.5V93C234.005 92.4477 234.453 92 235.005 92H253.005ZM252.005 94H236.005V96.968L236.161 97.0491C237.499 97.781 238.425 99.1735 238.5 100.788L238.505 101C238.505 102.704 237.558 104.187 236.161 104.951L236.005 105.031V108H252.005V105.031L251.849 104.951C250.51 104.219 249.585 102.826 249.51 101.212L249.505 101C249.505 99.2958 250.452 97.8129 251.849 97.0491L252.005 96.968V94Z" fill="black"/>
<path d="M188.005 96.9995V94.9995C188.005 92.2381 190.243 89.9995 193.005 89.9995C195.766 89.9995 198.005 92.2381 198.005 94.9995V96.9995H201.005C201.557 96.9995 202.005 97.4472 202.005 97.9995V110C202.005 110.552 201.557 111 201.005 111H185.005C184.453 111 184.005 110.552 184.005 110V97.9995C184.005 97.4472 184.453 96.9995 185.005 96.9995H188.005ZM188.005 98.9995H186.005V109H200.005V98.9995H198.005V101H196.005V98.9995H190.005V101H188.005V98.9995ZM190.005 96.9995H196.005V94.9995C196.005 93.3427 194.662 91.9995 193.005 91.9995C191.348 91.9995 190.005 93.3427 190.005 94.9995V96.9995Z" fill="black"/>
<path d="M132.689 96.9966C135.78 94.497 139.715 93 144 93C148.285 93 152.219 94.497 155.31 96.9966L154.054 98.5525C151.306 96.3307 147.809 95 144 95C140.191 95 136.694 96.3307 133.946 98.5525L132.689 96.9966ZM135.831 100.886C138.064 99.0812 140.905 98 144 98C147.094 98 149.936 99.0812 152.169 100.886L150.912 102.442C149.023 100.915 146.618 100 144 100C141.382 100 138.977 100.915 137.088 102.442L135.831 100.886ZM138.973 104.776C140.347 103.665 142.096 103 144 103C145.904 103 147.653 103.665 149.027 104.776L147.77 106.332C146.74 105.499 145.428 105 144 105C142.572 105 141.26 105.499 140.23 106.332L138.973 104.776ZM142.115 108.666C142.63 108.249 143.286 108 144 108C144.714 108 145.37 108.249 145.885 108.666L144 111L142.115 108.666Z" fill="black"/>
<path d="M96.4142 94H102.008C102.556 94 103 94.4447 103 95.0009V108.999C103 109.552 102.545 110 102.008 110H83.9918C83.4441 110 83 109.555 83 108.999V95.0009C83 94.4482 83.4553 94 83.9918 94H89.5858L87.0503 91.4645L88.4645 90.0503L92.4142 94H93.5858L97.5355 90.0503L98.9497 91.4645L96.4142 94ZM85 96V108H101V96H85Z" fill="black"/>
<path d="M41.3656 98.6821C42.302 100.329 43.6712 101.698 45.3179 102.634L46.2024 101.396C46.4965 100.984 47.0516 100.857 47.4956 101.1C48.9024 101.868 50.4571 102.335 52.0789 102.464C52.599 102.505 53 102.939 53 103.461V107.923C53 108.436 52.6122 108.866 52.1022 108.918C51.5723 108.973 51.0377 109 50.5 109C41.9396 109 35 102.06 35 93.5C35 92.9623 35.0274 92.4277 35.0819 91.8978C35.1343 91.3877 35.5639 91 36.0767 91H40.5394C41.0611 91 41.4951 91.401 41.5363 91.9211C41.6647 93.5429 42.1317 95.0976 42.9002 96.5044C43.1427 96.9484 43.0155 97.5035 42.6039 97.7976L41.3656 98.6821ZM38.8443 98.0252L40.7442 96.6681C40.2055 95.5051 39.8363 94.2718 39.6473 93H37.0091C37.003 93.1663 37 93.333 37 93.5C37 100.956 43.0442 107 50.5 107C50.667 107 50.8337 106.997 51 106.991V104.353C49.7282 104.164 48.4949 103.795 47.3319 103.256L45.9748 105.156C45.4258 104.943 44.8956 104.691 44.3874 104.406L44.3293 104.373C42.3697 103.259 40.7413 101.63 39.627 99.6707L39.5939 99.6126C39.3085 99.1044 39.0575 98.5742 38.8443 98.0252Z" fill="black"/>
<path d="M284 55H302V43H284V55ZM282 42C282 41.4477 282.448 41 283 41H303C303.552 41 304 41.4477 304 42V56C304 56.5523 303.552 57 303 57H283C282.448 57 282 56.5523 282 56V42ZM290 47C290 46.4477 289.552 46 289 46C288.448 46 288 46.4477 288 47C288 47.5523 288.448 48 289 48C289.552 48 290 47.5523 290 47ZM292 47C292 48.6569 290.657 50 289 50C287.343 50 286 48.6569 286 47C286 45.3432 287.343 44 289 44C290.657 44 292 45.3432 292 47ZM289.002 53C288.035 53 287.161 53.3907 286.527 54.0251L285.113 52.6109C286.107 51.6167 287.483 51 289.002 51C290.52 51 291.897 51.6167 292.891 52.6109L291.477 54.0251C290.842 53.3907 289.969 53 289.002 53ZM297.207 51.7071L301.207 47.7071L299.793 46.2929L296.5 49.5858L294.707 47.7929L293.293 49.2071L295.793 51.7071L296.5 52.4142L297.207 51.7071Z" fill="black"/>
<path d="M235.161 41.4692C237.585 39.0453 241.447 38.936 244.001 41.1413C246.553 38.936 250.415 39.0453 252.839 41.4692C255.258 43.8888 255.372 47.7414 253.178 50.2952L245.414 58.0862C244.669 58.8318 243.481 58.8657 242.695 58.1879L242.586 58.0862L234.821 50.2952C232.628 47.7414 232.742 43.8888 235.161 41.4692ZM236.575 42.8834C234.868 44.5906 234.819 47.3281 236.429 49.0942L236.575 49.2474L244 56.672L249.303 51.368L245.768 47.8332L244.707 48.8939C243.535 50.0654 241.636 50.0654 240.464 48.8939C239.293 47.7223 239.293 45.8228 240.464 44.6512L242.566 42.5487C240.853 41.1776 238.371 41.2404 236.729 42.7371L236.575 42.8834ZM245.061 45.7119C245.451 45.3213 246.084 45.3213 246.475 45.7119L250.717 49.9538L251.425 49.2474C253.182 47.4901 253.182 44.6408 251.425 42.8834C249.717 41.1763 246.98 41.1275 245.214 42.7371L245.061 42.8834L241.879 46.0654C241.516 46.4281 241.49 46.9999 241.801 47.3924L241.879 47.4796C242.241 47.8423 242.813 47.8682 243.206 47.5573L243.293 47.4796L245.061 45.7119Z" fill="black"/>
<path d="M202 50V57C202 57.5523 201.552 58 201 58H185C184.448 58 184 57.5523 184 57V50H183V48L184 43H202L203 48V50H202ZM186 50V56H200V50H186ZM185.04 48H200.96L200.36 45H185.64L185.04 48ZM187 51H195V54H187V51ZM184 40H202V42H184V40Z" fill="black"/>
<path d="M140 57V51H148V57H151V41H137V57H140ZM142 57H146V53H142V57ZM153 57H155V59H133V57H135V40C135 39.4477 135.448 39 136 39H152C152.552 39 153 39.4477 153 40V57ZM143 45V43H145V45H147V47H145V49H143V47H141V45H143Z" fill="black"/>
<path d="M102 56.9997C102 57.552 101.552 57.9997 101 57.9997H85C84.4477 57.9997 84 57.552 84 56.9997V46.4888C84 46.1802 84.1425 45.8889 84.3861 45.6995L92.3861 39.4772C92.7472 39.1964 93.2528 39.1964 93.6139 39.4772L101.614 45.6995C101.858 45.8889 102 46.1802 102 46.4888V56.9997ZM100 55.9997V46.9779L93 41.5335L86 46.9779V55.9997H100Z" fill="black"/>
<path d="M44 37.5859L50 43.5859V46.0002H54V56.0002H55V58.0002H33V56.0002H34V46.0002H38V43.5859L44 37.5859ZM50 56.0002H52V48.0002H50V56.0002ZM38 48.0002H36V56.0002H38V48.0002ZM40 44.4144V56.0002H43V49.0002H45V56.0002H48V44.4144L44 40.4144L40 44.4144Z" fill="black"/>
<path d="M216.358 258V248.004H223.862V258H222.616V249.11H217.618V258H216.358ZM229.328 250.356C229.972 250.356 230.523 250.496 230.98 250.776C231.447 251.056 231.802 251.453 232.044 251.966C232.296 252.47 232.422 253.063 232.422 253.744V254.486H227.284C227.303 255.335 227.518 255.984 227.928 256.432C228.348 256.871 228.932 257.09 229.678 257.09C230.154 257.09 230.574 257.048 230.938 256.964C231.312 256.871 231.694 256.74 232.086 256.572V257.65C231.704 257.818 231.326 257.939 230.952 258.014C230.579 258.098 230.136 258.14 229.622 258.14C228.913 258.14 228.283 257.995 227.732 257.706C227.191 257.417 226.766 256.987 226.458 256.418C226.16 255.839 226.01 255.135 226.01 254.304C226.01 253.483 226.146 252.778 226.416 252.19C226.696 251.602 227.084 251.149 227.578 250.832C228.082 250.515 228.666 250.356 229.328 250.356ZM229.314 251.364C228.726 251.364 228.26 251.555 227.914 251.938C227.578 252.311 227.378 252.834 227.312 253.506H231.134C231.134 253.077 231.069 252.703 230.938 252.386C230.808 252.069 230.607 251.821 230.336 251.644C230.075 251.457 229.734 251.364 229.314 251.364ZM237.903 250.356C238.827 250.356 239.569 250.678 240.129 251.322C240.698 251.966 240.983 252.937 240.983 254.234C240.983 255.083 240.852 255.802 240.591 256.39C240.339 256.969 239.979 257.407 239.513 257.706C239.055 257.995 238.514 258.14 237.889 258.14C237.506 258.14 237.165 258.089 236.867 257.986C236.568 257.883 236.311 257.753 236.097 257.594C235.891 257.426 235.714 257.244 235.565 257.048H235.481C235.499 257.207 235.518 257.407 235.537 257.65C235.555 257.893 235.565 258.103 235.565 258.28V261.36H234.333V250.496H235.341L235.509 251.518H235.565C235.714 251.303 235.891 251.107 236.097 250.93C236.311 250.753 236.563 250.613 236.853 250.51C237.151 250.407 237.501 250.356 237.903 250.356ZM237.679 251.392C237.175 251.392 236.769 251.49 236.461 251.686C236.153 251.873 235.929 252.157 235.789 252.54C235.649 252.923 235.574 253.408 235.565 253.996V254.234C235.565 254.85 235.63 255.373 235.761 255.802C235.891 256.231 236.111 256.558 236.419 256.782C236.736 257.006 237.165 257.118 237.707 257.118C238.164 257.118 238.537 256.992 238.827 256.74C239.125 256.488 239.345 256.147 239.485 255.718C239.634 255.279 239.709 254.78 239.709 254.22C239.709 253.361 239.541 252.675 239.205 252.162C238.878 251.649 238.369 251.392 237.679 251.392ZM245.844 250.356C246.488 250.356 247.039 250.496 247.496 250.776C247.963 251.056 248.317 251.453 248.56 251.966C248.812 252.47 248.938 253.063 248.938 253.744V254.486H243.8C243.819 255.335 244.033 255.984 244.444 256.432C244.864 256.871 245.447 257.09 246.194 257.09C246.67 257.09 247.09 257.048 247.454 256.964C247.827 256.871 248.21 256.74 248.602 256.572V257.65C248.219 257.818 247.841 257.939 247.468 258.014C247.095 258.098 246.651 258.14 246.138 258.14C245.429 258.14 244.799 257.995 244.248 257.706C243.707 257.417 243.282 256.987 242.974 256.418C242.675 255.839 242.526 255.135 242.526 254.304C242.526 253.483 242.661 252.778 242.932 252.19C243.212 251.602 243.599 251.149 244.094 250.832C244.598 250.515 245.181 250.356 245.844 250.356ZM245.83 251.364C245.242 251.364 244.775 251.555 244.43 251.938C244.094 252.311 243.893 252.834 243.828 253.506H247.65C247.65 253.077 247.585 252.703 247.454 252.386C247.323 252.069 247.123 251.821 246.852 251.644C246.591 251.457 246.25 251.364 245.83 251.364ZM256.924 247.388C256.887 247.855 256.77 248.247 256.574 248.564C256.388 248.881 256.108 249.119 255.734 249.278C255.361 249.437 254.876 249.516 254.278 249.516C253.672 249.516 253.182 249.437 252.808 249.278C252.444 249.119 252.178 248.886 252.01 248.578C251.842 248.261 251.74 247.864 251.702 247.388H252.85C252.897 247.892 253.028 248.233 253.242 248.41C253.466 248.578 253.821 248.662 254.306 248.662C254.736 248.662 255.072 248.573 255.314 248.396C255.566 248.209 255.716 247.873 255.762 247.388H256.924ZM252.01 255.074C252.01 255.158 252.006 255.279 251.996 255.438C251.996 255.587 251.992 255.751 251.982 255.928C251.973 256.096 251.964 256.259 251.954 256.418C251.945 256.567 251.936 256.689 251.926 256.782L255.944 250.496H257.456V258H256.308V253.576C256.308 253.427 256.308 253.231 256.308 252.988C256.318 252.745 256.327 252.507 256.336 252.274C256.346 252.031 256.355 251.849 256.364 251.728L252.374 258H250.848V250.496H252.01V255.074ZM265.024 251.532H262.574V258H261.356V251.532H258.934V250.496H265.024V251.532ZM267.665 255.074C267.665 255.158 267.66 255.279 267.651 255.438C267.651 255.587 267.646 255.751 267.637 255.928C267.627 256.096 267.618 256.259 267.609 256.418C267.599 256.567 267.59 256.689 267.581 256.782L271.599 250.496H273.111V258H271.963V253.576C271.963 253.427 271.963 253.231 271.963 252.988C271.972 252.745 271.981 252.507 271.991 252.274C272 252.031 272.009 251.849 272.019 251.728L268.029 258H266.503V250.496H267.665V255.074Z" fill="white"/>
<path d="M81.002 259H79.742V254.338H74.618V259H73.358V249.004H74.618V253.232H79.742V249.004H81.002V259ZM86.409 251.37C87.3236 251.37 88.0003 251.571 88.439 251.972C88.8776 252.373 89.097 253.013 89.097 253.89V259H88.201L87.963 257.936H87.907C87.6923 258.207 87.4683 258.435 87.235 258.622C87.011 258.799 86.7496 258.93 86.451 259.014C86.1616 259.098 85.807 259.14 85.387 259.14C84.939 259.14 84.533 259.061 84.169 258.902C83.8143 258.743 83.5343 258.501 83.329 258.174C83.1236 257.838 83.021 257.418 83.021 256.914C83.021 256.167 83.315 255.593 83.903 255.192C84.491 254.781 85.3963 254.557 86.619 254.52L87.893 254.478V254.03C87.893 253.405 87.7576 252.971 87.487 252.728C87.2163 252.485 86.8336 252.364 86.339 252.364C85.947 252.364 85.5736 252.425 85.219 252.546C84.8643 252.658 84.533 252.789 84.225 252.938L83.847 252.014C84.1736 251.837 84.561 251.687 85.009 251.566C85.457 251.435 85.9236 251.37 86.409 251.37ZM86.773 255.374C85.8396 255.411 85.191 255.561 84.827 255.822C84.4723 256.083 84.295 256.452 84.295 256.928C84.295 257.348 84.421 257.656 84.673 257.852C84.9343 258.048 85.2656 258.146 85.667 258.146C86.3016 258.146 86.829 257.973 87.249 257.628C87.669 257.273 87.879 256.732 87.879 256.004V255.332L86.773 255.374ZM93.3886 251.356C93.9579 251.356 94.4526 251.435 94.8726 251.594C95.2926 251.743 95.6193 251.967 95.8526 252.266C96.0859 252.555 96.2026 252.91 96.2026 253.33C96.2026 253.787 96.0766 254.151 95.8246 254.422C95.5726 254.683 95.2273 254.875 94.7886 254.996V255.052C95.0873 255.136 95.3626 255.253 95.6146 255.402C95.8666 255.551 96.0673 255.747 96.2166 255.99C96.3753 256.233 96.4546 256.545 96.4546 256.928C96.4546 257.339 96.3379 257.712 96.1046 258.048C95.8806 258.384 95.5306 258.65 95.0546 258.846C94.5879 259.042 93.9859 259.14 93.2486 259.14C92.8939 259.14 92.5533 259.121 92.2266 259.084C91.9093 259.047 91.6199 258.991 91.3586 258.916C91.1066 258.841 90.8826 258.753 90.6866 258.65V257.544C91.0039 257.693 91.3773 257.829 91.8066 257.95C92.2453 258.071 92.7213 258.132 93.2346 258.132C93.6079 258.132 93.9439 258.09 94.2426 258.006C94.5506 257.922 94.7933 257.791 94.9706 257.614C95.1479 257.427 95.2366 257.175 95.2366 256.858C95.2366 256.569 95.1573 256.335 94.9986 256.158C94.8399 255.971 94.6019 255.831 94.2846 255.738C93.9766 255.645 93.5799 255.598 93.0946 255.598H92.0866V254.59H92.8986C93.5426 254.59 94.0559 254.506 94.4386 254.338C94.8306 254.161 95.0266 253.862 95.0266 253.442C95.0266 253.087 94.8773 252.821 94.5786 252.644C94.2893 252.467 93.8693 252.378 93.3186 252.378C92.9079 252.378 92.5439 252.42 92.2266 252.504C91.9186 252.579 91.5779 252.695 91.2046 252.854L90.7706 251.874C91.1719 251.697 91.5919 251.566 92.0306 251.482C92.4693 251.398 92.9219 251.356 93.3886 251.356ZM101.12 251.37C102.035 251.37 102.711 251.571 103.15 251.972C103.589 252.373 103.808 253.013 103.808 253.89V259H102.912L102.674 257.936H102.618C102.403 258.207 102.179 258.435 101.946 258.622C101.722 258.799 101.461 258.93 101.162 259.014C100.873 259.098 100.518 259.14 100.098 259.14C99.6499 259.14 99.2439 259.061 98.8799 258.902C98.5252 258.743 98.2452 258.501 98.0399 258.174C97.8346 257.838 97.7319 257.418 97.7319 256.914C97.7319 256.167 98.0259 255.593 98.6139 255.192C99.2019 254.781 100.107 254.557 101.33 254.52L102.604 254.478V254.03C102.604 253.405 102.469 252.971 102.198 252.728C101.927 252.485 101.545 252.364 101.05 252.364C100.658 252.364 100.285 252.425 99.9299 252.546C99.5752 252.658 99.2439 252.789 98.9359 252.938L98.5579 252.014C98.8846 251.837 99.2719 251.687 99.7199 251.566C100.168 251.435 100.635 251.37 101.12 251.37ZM101.484 255.374C100.551 255.411 99.9019 255.561 99.5379 255.822C99.1832 256.083 99.0059 256.452 99.0059 256.928C99.0059 257.348 99.1319 257.656 99.3839 257.852C99.6452 258.048 99.9766 258.146 100.378 258.146C101.013 258.146 101.54 257.973 101.96 257.628C102.38 257.273 102.59 256.732 102.59 256.004V255.332L101.484 255.374ZM111.698 251.496V257.964H112.79V261.604H111.6V259H106.378V261.604H105.202V257.964H105.804C106.233 257.367 106.588 256.718 106.868 256.018C107.157 255.309 107.372 254.571 107.512 253.806C107.661 253.031 107.74 252.261 107.75 251.496H111.698ZM108.842 252.462C108.804 253.097 108.706 253.755 108.548 254.436C108.389 255.108 108.184 255.752 107.932 256.368C107.689 256.984 107.404 257.516 107.078 257.964H110.508V252.462H108.842Z" fill="white"/>
<defs>
<linearGradient id="paint0_linear_6_240" x1="111" y1="134" x2="79" y2="169" gradientUnits="userSpaceOnUse">
<stop stop-color="#959595" stop-opacity="0"/>
<stop offset="1" stop-color="#363636" stop-opacity="0.73"/>
</linearGradient>
</defs>
</svg>
